<svg id="Layer_2" data-name="Layer 2" xmlns="http://www.w3.org/2000/svg" viewBox="0 0 36 36"><title>ffwd10</title><path d="M32.09,13a15.71,15.71,0,0,0-1.45-2.28L27.5,13.12a11.79,11.79,0,0,1,1.09,1.71,11.56,11.56,0,0,1,1.32,5.4A11.7,11.7,0,1,1,18,8.54v4.14a.62.62,0,0,0,1,.48l7.37-5.84a.62.62,0,0,0,0-1L19,.52A.62.62,0,0,0,18,1V4.58A15.63,15.63,0,1,0,32.09,13Z"/><polygon points="15.58 25.81 15.58 15.53 13.6 15.53 10.86 16.79 11.26 18.59 13.22 17.66 13.25 17.66 13.25 25.81 15.58 25.81"/><path d="M16.6,20.68c0,2.91,1.19,5.3,3.84,5.3s3.89-2.2,3.89-5.36c0-2.82-1.09-5.27-3.83-5.27S16.6,17.69,16.6,20.68Zm5.33,0c0,2.34-.51,3.51-1.44,3.51S19,23,19,20.68s.6-3.51,1.47-3.51S21.94,18.37,21.94,20.65Z"/></svg>